<mxfile host="app.diagrams.net" modified="2020-12-21T05:51:32.393Z" agent="5.0 (Windows NT 10.0; Win64; x64) AppleWebKit/537.36 (KHTML, like Gecko) Chrome/87.0.4280.88 Safari/537.36 Edg/87.0.664.57" etag="SkI1KCdlG_mc9Qsv_7dQ" version="14.0.3" type="github">
  <diagram id="K4I6_uIa_C2dmjRzj60m" name="第 1 页">
    <mxGraphModel dx="677" dy="378" grid="1" gridSize="10" guides="1" tooltips="1" connect="1" arrows="1" fold="1" page="1" pageScale="1" pageWidth="827" pageHeight="1169" background="none" math="0" shadow="1">
      <root>
        <mxCell id="0" />
        <mxCell id="1" parent="0" />
        <mxCell id="gtzaTPpwpM-55rcOBDIw-1" value="" style="shape=cube;whiteSpace=wrap;html=1;boundedLbl=1;backgroundOutline=1;darkOpacity=0.05;darkOpacity2=0.1;sketch=1;" vertex="1" parent="1">
          <mxGeometry x="160" y="250" width="40" height="90" as="geometry" />
        </mxCell>
        <mxCell id="gtzaTPpwpM-55rcOBDIw-3" value="" style="shape=cube;whiteSpace=wrap;html=1;boundedLbl=1;backgroundOutline=1;darkOpacity=0.05;darkOpacity2=0.1;sketch=1;" vertex="1" parent="1">
          <mxGeometry x="110" y="250" width="25" height="90" as="geometry" />
        </mxCell>
        <mxCell id="gtzaTPpwpM-55rcOBDIw-4" value="512" style="text;html=1;align=center;verticalAlign=middle;resizable=0;points=[];autosize=1;" vertex="1" parent="1">
          <mxGeometry x="70" y="280" width="40" height="20" as="geometry" />
        </mxCell>
        <mxCell id="gtzaTPpwpM-55rcOBDIw-5" value="512" style="text;html=1;align=center;verticalAlign=middle;resizable=0;points=[];autosize=1;" vertex="1" parent="1">
          <mxGeometry x="80" y="320" width="40" height="20" as="geometry" />
        </mxCell>
        <mxCell id="gtzaTPpwpM-55rcOBDIw-6" value="3" style="text;html=1;align=center;verticalAlign=middle;resizable=0;points=[];autosize=1;" vertex="1" parent="1">
          <mxGeometry x="120" y="340" width="20" height="20" as="geometry" />
        </mxCell>
        <mxCell id="gtzaTPpwpM-55rcOBDIw-7" value="64" style="text;html=1;align=center;verticalAlign=middle;resizable=0;points=[];autosize=1;" vertex="1" parent="1">
          <mxGeometry x="175" y="340" width="30" height="20" as="geometry" />
        </mxCell>
      </root>
    </mxGraphModel>
  </diagram>
</mxfile>
